<?xml version="1.0" encoding="UTF-8" standalone="no" ?>
<!DOCTYPE svg PUBLIC "-//W3C//DTD SVG 1.1//EN" "http://www.w3.org/Graphics/SVG/1.1/DTD/svg11.dtd">
<svg xmlns="http://www.w3.org/2000/svg" xmlns:xlink="http://www.w3.org/1999/xlink" version="1.1" width="1080" height="1080" viewBox="0 0 1080 1080" xml:space="preserve">
<desc>Created with Fabric.js 4.2.0</desc>
<defs>
</defs>
<g transform="matrix(1 0 0 1 540 540)" id="60d3ec19-afb6-403c-bdb5-bfc5fefe81fd"  >
<rect style="stroke: none; stroke-width: 1; stroke-dasharray: none; stroke-linecap: butt; stroke-dashoffset: 0; stroke-linejoin: miter; stroke-miterlimit: 4; fill: rgb(255,255,255); fill-rule: nonzero; opacity: 1;" vector-effect="non-scaling-stroke"  x="-540" y="-540" rx="0" ry="0" width="1080" height="1080" />
</g>
<g transform="matrix(0 0 0 0 0 0)" id="07570482-e820-41d6-b123-d935103d635d"  >
</g>
<g transform="matrix(1 0 0 1 677.69 560.83)"  >
<path style="stroke: rgb(0,0,0); stroke-width: 13.6; stroke-dasharray: none; stroke-linecap: round; stroke-dashoffset: 0; stroke-linejoin: round; stroke-miterlimit: 10; fill: none; fill-rule: nonzero; opacity: 1;" vector-effect="non-scaling-stroke"  transform=" translate(-677.69, -560.83)" d="M 354.6283511117249 134.80536091700043 Q 354.6419511117249 134.81896091700042 354.6419511117249 136.1222593564425 Q 354.6419511117249 137.42555779588454 359.8551448694932 149.15524375086312 Q 365.0683386272614 160.88492970584173 372.8881292639138 175.22121253970445 Q 380.7079199005662 189.55749537356718 391.13430741610273 203.8937782074299 Q 401.56069493163926 218.23006104129263 414.59367932605994 233.86964231459743 Q 427.62666372048056 249.50922358790223 448.47943875155363 266.45210330064907 Q 469.3322137826267 283.3949830133959 495.398182571468 291.2147736500483 Q 521.4641513603093 299.0345642867007 537.1037326336141 302.9444596050269 Q 552.7433139069188 306.8543549233531 560.5631045435713 306.8543549233531 Q 568.3828951802237 306.8543549233531 591.8422670901809 306.8543549233531 Q 615.301639000138 306.8543549233531 620.5148327579063 306.8543549233531 Q 625.7280265156746 306.8543549233531 642.6709062284215 301.6411611655849 Q 659.6137859411683 296.4279674078166 667.4335765778208 292.5180720894904 Q 675.2533672144732 288.60817677116415 681.7698594116835 286.00157989228 Q 688.2863516088938 283.3949830133959 690.8929484877779 279.48508769506975 Q 693.499545366662 275.57519237674353 705.2292313216406 266.45210330064907 Q 716.9589172766192 257.3290142245546 719.5655141555034 256.02571578511254 Q 722.1721110343875 254.7224173456705 727.3853047921557 249.50922358790223 Q 732.598498549924 244.29602983013396 736.5083938682502 242.9927313906919 Q 740.4182891865764 241.6894329512498 740.4182891865764 240.38613451180777 Q 740.4182891865764 239.0828360723657 739.1149907471344 240.38613451180777 Q 737.8116923076923 241.6894329512498 736.5083938682502 241.6894329512498 Q 735.2050954288081 241.6894329512498 732.598498549924 242.9927313906919 Q 729.99190167104 244.29602983013396 726.0820063527137 245.599328269576 Q 722.1721110343875 246.90262670901808 720.8688125949454 246.90262670901808 Q 719.5655141555034 246.90262670901808 718.2622157160613 248.20592514846015 Q 716.9589172766192 249.50922358790223 711.745723518851 252.11582046678637 Q 706.5325297610827 254.7224173456705 702.6226344427565 263.8455064217649 Q 698.7127391244303 272.9685954978594 693.499545366662 289.9114752106062 Q 688.2863516088938 306.8543549233531 688.2863516088938 310.7642502416793 Q 688.2863516088938 314.6741455600055 686.9830531694518 321.1906377572159 Q 685.6797547300097 327.7071299544262 685.6797547300097 334.2236221516365 Q 685.6797547300097 340.7401143488468 685.6797547300097 351.16650186438335 Q 685.6797547300097 361.5928893799199 686.9830531694518 365.50278469824605 Q 688.2863516088938 369.41268001657227 694.8028438061042 385.05226128987704 Q 701.3193360033144 400.69184256318186 710.4424250794088 412.42152851816047 Q 719.5655141555034 424.1512144731391 729.9919016710398 431.97100510979146 Q 740.4182891865764 439.7907957464439 757.3611688993233 447.61058638309623 Q 774.3040486120701 455.4303770197486 793.8535252037011 464.5534660958431 Q 813.4030017953321 473.67655517193754 835.5590752658472 476.2831520508217 Q 857.7151487363624 478.88974892970583 883.7811175252036 482.79964424803205 Q 909.847086314045 486.7095395663583 929.396562905676 486.7095395663583 Q 948.946039497307 486.7095395663583 969.79881452838 486.7095395663583 Q 990.6515895594531 486.7095395663583 994.5614848777793 486.7095395663583 Q 998.4713801961055 486.7095395663583 999.7746786355476 486.7095395663583 Q 1001.0779770749896 486.7095395663583 999.7746786355476 486.7095395663583 Q 998.4713801961055 486.7095395663583 997.1680817566635 486.7095395663583 Q 995.8647833172214 486.7095395663583 993.2581864383372 486.7095395663583 Q 990.6515895594531 486.7095395663583 988.044992680569 486.7095395663583 Q 985.4383958016848 486.7095395663583 984.1350973622427 489.31613644524236 Q 982.8317989228007 491.9227333241265 981.5285004833586 491.9227333241265 Q 980.2252020439166 491.9227333241265 978.9219036044744 491.9227333241265 Q 977.6186051650324 491.9227333241265 973.7087098467063 491.9227333241265 Q 969.7988145283801 491.9227333241265 965.8889192100539 491.9227333241265 Q 961.9790238917277 491.9227333241265 952.8559348156332 494.52933020301066 Q 943.7328457395387 497.13592708189475 939.8229504212125 499.74252396077884 Q 935.9130551028862 502.349120839663 907.2404894351608 510.1689114763154 Q 878.5679237674354 517.9887021129678 852.5019549785941 527.1117911890623 Q 826.4359861897527 536.2348802651568 802.9766142797955 546.6612677806934 Q 779.5172423698384 557.0876552962299 765.1809595359757 564.9074459328822 Q 750.844676702113 572.7272365695345 740.4182891865764 580.547027206187 Q 729.99190167104 588.3668178428394 727.3853047921558 594.8833100400498 Q 724.7787079132717 601.39980223726 720.8688125949454 606.6129959950283 Q 716.9589172766192 611.8261897527966 715.6556188371771 618.3426819500069 Q 714.3523203977351 624.8591741472172 710.4424250794088 640.498755420522 Q 706.5325297610827 656.1383366938268 705.2292313216407 658.7449335727109 Q 703.9259328821986 661.3515304515951 703.9259328821986 676.9911117248998 Q 703.9259328821986 692.6306929982046 703.9259328821986 706.9669758320674 Q 703.9259328821986 721.3032586659301 703.9259328821986 731.7296461814667 Q 703.9259328821986 742.1560336970032 705.2292313216407 751.2791227730977 Q 706.5325297610827 760.4022118491921 707.8358282005248 765.6154056069604 Q 709.1391266399669 770.8285993647287 710.4424250794088 777.345091561939 Q 711.7457235188509 783.8615837591493 713.049021958293 786.4681806380335 Q 714.3523203977351 789.0747775169176 714.3523203977351 794.2879712746858 Q 714.3523203977351 799.5011650324541 716.9589172766192 806.0176572296645 Q 719.5655141555034 812.5341494268748 720.8688125949454 819.0506416240851 Q 722.1721110343875 825.5671338212954 723.4754094738296 832.0836260185057 Q 724.7787079132717 838.600118215716 727.3853047921558 843.8133119734844 Q 729.99190167104 849.0265057312527 731.295200110482 856.8462963679051 Q 732.598498549924 864.6660870045574 736.5083938682502 869.8792807623256 Q 740.4182891865764 875.0924745200939 740.4182891865764 876.395772959536 Q 740.4182891865764 877.699071398978 743.0248860654606 876.395772959536 Q 745.6314829443447 875.0924745200939 748.2380798232289 873.7891760806519 Q 750.844676702113 872.4858776412099 752.147975141555 871.1825792017678 Q 753.451273580997 869.8792807623256 753.451273580997 863.3627885651154 Q 753.451273580997 856.846296367905 753.451273580997 847.7232072918105 Q 753.451273580997 838.600118215716 750.844676702113 828.1737307001795 Q 748.2380798232289 817.747343184643 741.7215876260185 807.3209556691064 Q 735.2050954288081 796.8945681535698 729.9919016710398 791.6813743958016 Q 724.7787079132717 786.4681806380333 722.1721110343875 785.1648821985914 Q 719.5655141555034 783.8615837591493 718.2622157160613 783.8615837591493 Q 716.9589172766192 783.8615837591493 715.6556188371771 782.5582853197072 Q 714.3523203977351 781.2549868802652 710.4424250794088 781.2549868802652 Q 706.5325297610827 781.2549868802652 702.6226344427565 781.2549868802652 Q 698.7127391244303 781.2549868802652 689.5896500483359 778.648390001381 Q 680.4665609722414 776.0417931224969 668.7368750172627 770.8285993647287 Q 657.0071890622842 765.6154056069604 636.1544140312111 764.3121071675182 Q 615.301639000138 763.0088087280761 603.5719530451595 764.3121071675182 Q 591.8422670901809 765.6154056069604 582.7191780140864 766.9187040464024 Q 573.5960889379919 768.2220024858444 565.7762983013396 773.4351962436128 Q 557.9565076646873 778.6483900013811 550.1367170280348 783.8615837591494 Q 542.3169263913824 789.0747775169176 535.8004341941721 799.5011650324541 Q 529.2839419969617 809.9275525479906 521.4641513603094 819.0506416240851 Q 513.644360723657 828.1737307001795 505.82457008700453 838.6001182157161 Q 498.00477945035215 849.0265057312527 492.7915856925839 858.1495948073471 Q 487.57839193481567 867.2726838834415 475.84870597983706 882.9122651567463 Q 464.11902002485846 898.5518464300511 452.38933406987985 915.4947261427978 Q 440.6596481149013 932.4376058555447 431.5365590388068 945.4705902499654 Q 422.4134699627123 958.5035746443862 418.5035746443861 966.3233652810385 Q 414.5936793260599 974.1431559176908 413.29038088661787 976.749752796575 Q 411.9870824471758 979.3563496754591 410.6837840077337 981.9629465543433 Q 409.38048556829165 984.5695434332274 409.38048556829165 985.8728418726695 Q 409.38048556829165 987.1761403121116 409.38048556829165 985.8728418726695 Q 409.38048556829165 984.5695434332274 409.38048556829165 981.9629465543433 L 409.38048556829165 979.3427496754591" stroke-linecap="round" />
</g>
<g transform="matrix(1 0 0 1 232.3 564.91)"  >
<path style="stroke: rgb(0,0,0); stroke-width: 13.6; stroke-dasharray: none; stroke-linecap: round; stroke-dashoffset: 0; stroke-linejoin: round; stroke-miterlimit: 10; fill: none; fill-rule: nonzero; opacity: 1;" vector-effect="non-scaling-stroke"  transform=" translate(-232.29, -564.91)" d="M 406.7738886894075 989.7963371909958 Q 406.7738886894075 989.7827371909958 406.7738886894075 980.6596481149013 Q 406.7738886894075 971.5365590388068 406.7738886894075 950.6837840077337 Q 406.7738886894075 929.8310089766607 406.7738886894075 908.9782339455876 Q 406.7738886894075 888.1254589145145 406.7738886894075 873.7891760806518 Q 406.7738886894075 859.4528932467891 404.16729181052335 843.8133119734844 Q 401.56069493163926 828.1737307001795 391.13430741610273 803.4110603507803 Q 380.7079199005662 778.6483900013811 372.8881292639138 764.3121071675184 Q 365.0683386272614 749.9758243336556 357.24854799060904 739.5494368181191 Q 349.4287573539566 729.1230493025826 341.6089667173042 723.9098555448143 Q 333.7891760806518 718.696661787046 331.1825792017677 717.3933633476039 Q 328.5759823228836 716.0900649081618 322.0594901256733 712.1801695898357 Q 315.5429979284629 708.2702742715095 306.41990885236845 708.2702742715095 Q 297.296819776274 708.2702742715095 289.4770291396216 708.2702742715095 Q 281.6572385029692 708.2702742715095 271.2308509874327 712.1801695898357 Q 260.80446347189616 716.0900649081618 234.73849468305482 729.1230493025826 Q 208.6725258942135 742.1560336970032 191.72964618146665 752.5824212125397 Q 174.78676646871978 763.0088087280761 157.8438867559729 774.7384946830548 Q 140.90100704322606 786.4681806380333 125.26142576992127 796.8945681535699 Q 109.62184449661649 807.3209556691065 104.40865073884822 811.2308509874326 Q 99.19545698107996 815.1407463057589 91.37566634442757 820.3539400635271 Q 83.55587570777517 825.5671338212954 78.3426819500069 828.1737307001796 Q 73.12948819223864 830.7803275790637 69.21959287391243 837.296819776274 Q 65.30969755558624 843.8133119734842 65.30969755558624 845.1166104129263 Q 65.30969755558624 846.4199088523684 66.61299599502831 845.1166104129263 Q 67.91629443447037 843.8133119734842 69.21959287391243 842.5100135340422 Q 70.5228913133545 841.2067150946002 73.12948819223864 838.6001182157161 Q 75.73608507112277 835.9935213368319 91.37566634442756 824.2638353818534 Q 107.01524761773234 812.5341494268748 120.04823201215301 799.5011650324541 Q 133.08121640657367 786.4681806380333 144.81090236155228 774.7384946830548 Q 156.54058831653086 763.0088087280761 168.27027427150944 753.8857196519817 Q 179.99996022648804 744.7626305758873 195.63954149979284 726.5164524236984 Q 211.27912277309764 708.2702742715095 217.79561497030798 701.7537820742991 Q 224.31210716751832 695.2372898770889 234.73849468305482 680.9010070432262 Q 245.16488219859133 666.5647242093634 252.98467283524374 656.1383366938269 Q 260.80446347189616 645.7119491782903 266.01765722966445 639.19545698108 Q 271.2308509874327 632.6789647838697 275.14074630575885 627.4657710261014 Q 279.0506416240851 622.2525772683331 280.35394006352715 618.3426819500069 Q 281.6572385029692 614.4327866316806 282.9605369424113 606.6129959950283 Q 284.2638353818533 598.7932053583759 282.9605369424113 588.3668178428394 Q 281.6572385029692 577.9404303273029 277.747343184643 570.1206396906505 Q 273.8374478663168 562.300849053998 268.6242541085485 554.4810584173456 Q 263.41106035078025 546.6612677806933 255.59126971412786 536.2348802651568 Q 247.7714790774755 525.8084927496202 230.82859936472863 504.95571771854713 Q 213.8857196519818 484.1029426874741 199.54943681811903 469.7666598536114 Q 185.2131539842563 455.4303770197486 172.18016958983566 443.70069106477 Q 159.14718519541498 431.9710051097914 135.6878132854578 415.0281253970446 Q 112.22844137550061 398.0852456842978 96.58886010219582 386.35555972931917 Q 80.94927882889104 374.62587377434056 73.12948819223864 366.8060831376881 Q 65.30969755558624 358.98629250103573 62.70310067670211 356.37969562215164 Q 60.09650379781798 353.7730987432675 58.793205358375914 353.7730987432675 Q 57.48990691893385 353.7730987432675 58.793205358375914 353.7730987432675 Q 60.09650379781798 353.7730987432675 62.70310067670211 356.37969562215164 Q 65.30969755558624 358.98629250103573 79.64598038944897 368.1093815771302 Q 93.98226322331169 377.2324706532247 110.92514293605855 386.35555972931917 Q 127.86802264880541 395.4786488054136 147.4174992404364 401.99514100262394 Q 166.9669758320674 408.51163319983425 189.1230493025825 412.42152851816047 Q 211.27912277309764 416.3314238364867 238.64839000138102 424.151214473139 Q 266.0176572296644 431.9710051097914 284.2638353818533 435.8809004281177 Q 302.51001353404223 439.7907957464439 314.23969948902084 438.48749730700183 Q 325.96938544399944 437.18419886755976 333.7891760806518 431.97100510979146 Q 341.60896671730427 426.75781135202317 346.82216047507256 417.6347222759287 Q 352.0353542328408 408.51163319983425 358.5518464300511 395.4786488054136 Q 365.0683386272614 382.44566441099295 366.3716370667035 364.19948625880403 Q 367.6749355061456 345.9533081066151 367.6749355061456 339.4368159094048 Q 367.6749355061456 332.92032371219443 367.6749355061456 325.10053307554205 Q 367.6749355061456 317.28074243888966 366.3716370667035 313.37084712056344 Q 365.0683386272614 309.4609518022372 363.76504018781935 302.9444596050269 Q 362.4617417483773 296.4279674078166 359.8551448694932 288.6081767711642 Q 357.24854799060904 280.7883861345118 355.94524955116697 276.8784908161856 Q 354.6419511117249 272.9685954978594 354.6419511117249 267.7554017400911 Q 354.6419511117249 262.54220798232285 353.3386526722828 258.6323126639967 Q 352.0353542328408 254.7224173456705 350.7320557933987 249.50922358790223 Q 349.4287573539566 244.29602983013396 349.4287573539566 241.68943295124984 Q 349.4287573539566 239.0828360723657 346.82216047507245 236.47623919348155 Q 344.21556359618836 233.86964231459743 344.21556359618836 229.95974699627124 Q 344.21556359618836 226.04985167794501 344.21556359618836 223.4432547990609 Q 344.21556359618836 220.83665792017678 344.21556359618836 216.92676260185056 Q 344.21556359618836 213.01686728352436 344.21556359618836 209.10697196519817 Q 344.21556359618836 205.19707664687195 344.21556359618836 202.59047976798783 Q 344.21556359618836 199.9838828891037 344.21556359618836 198.68058444966164 Q 344.21556359618836 197.3772860102196 344.21556359618836 194.77068913133544 Q 344.21556359618836 192.1640922524513 344.21556359618836 189.55749537356718 Q 344.21556359618836 186.95089849468306 344.21556359618836 185.64760005524099 Q 344.21556359618836 184.3443016157989 344.21556359618836 183.04100317635687 Q 344.21556359618836 181.7377047369148 344.21556359618836 180.43440629747272 Q 344.21556359618836 179.13110785803065 344.21556359618836 177.82780941858857 Q 344.21556359618836 176.52451097914653 344.21556359618836 173.9179141002624 Q 344.21556359618836 171.31131722137826 344.21556359618836 168.7047203424941 Q 344.21556359618836 166.09812346361 344.21556359618836 164.79482502416795 Q 344.21556359618836 163.49152658472588 344.21556359618836 162.1882281452838 Q 344.21556359618836 160.88492970584173 344.21556359618836 159.58163126639965 Q 344.21556359618836 158.2783328269576 344.21556359618836 154.36843750863142 Q 344.21556359618836 150.4585421903052 344.21556359618836 147.85194531142105 Q 344.21556359618836 145.24534843253693 345.51886203563043 143.94204999309488 Q 346.8221604750725 142.6387515536528 346.8221604750725 141.33545311421074 L 346.8221604750725 140.0185546747687" stroke-linecap="round" />
</g>
</svg>